<svg width="492" height="465" viewBox="0 0 492 465" fill="none" xmlns="http://www.w3.org/2000/svg">
<path d="M486.172 194.024C479.907 178.07 469.005 164.361 454.872 154.664C454.034 154.095 453.336 153.343 452.832 152.464C452.328 151.586 452.03 150.604 451.962 149.594C451.947 149.304 451.947 149.013 451.962 148.724C452.029 147.864 452.079 147.004 452.112 146.144C452.112 145.274 452.162 144.404 452.162 143.534C452.163 134.38 450.361 125.316 446.859 116.859C443.357 108.402 438.223 100.718 431.75 94.2454C425.278 87.7729 417.594 82.6388 409.137 79.1366C400.68 75.6343 391.616 73.8323 382.462 73.8336H382.402C380.824 73.8582 379.288 73.3204 378.069 72.3164C376.851 71.3125 376.03 69.9078 375.752 68.3536C374.308 59.5239 370.867 51.1404 365.692 43.8419C360.517 36.5435 353.744 30.5228 345.889 26.2386C338.034 21.9544 329.305 19.5198 320.367 19.1204C311.429 18.7209 302.518 20.3672 294.312 23.9336C292.927 24.5344 291.377 24.6428 289.922 24.2407C288.467 23.8387 287.193 22.9504 286.312 21.7236C281.779 15.2815 275.763 10.0242 268.772 6.39537C261.781 2.76656 254.019 0.872709 246.142 0.873637C238.263 0.863524 230.498 2.75338 223.506 6.38297C216.513 10.0126 210.498 15.2748 205.972 21.7236C205.095 22.9587 203.815 23.8497 202.352 24.2436C200.893 24.6455 199.34 24.5361 197.952 23.9336C189.747 20.3672 180.835 18.7209 171.897 19.1204C162.959 19.5198 154.23 21.9544 146.375 26.2386C138.521 30.5228 131.748 36.5435 126.572 43.8419C121.397 51.1404 117.956 59.5239 116.512 68.3536C116.232 69.9086 115.409 71.3135 114.189 72.3173C112.969 73.3211 111.432 73.8586 109.852 73.8336H109.792C91.3065 73.8336 73.578 81.177 60.5067 94.2483C47.4355 107.32 40.0921 125.048 40.0921 143.534C40.0921 144.404 40.0921 145.274 40.1421 146.144C40.1921 147.014 40.2321 147.864 40.2921 148.724C40.317 149.013 40.317 149.304 40.2921 149.594C40.2257 150.604 39.93 151.585 39.4275 152.464C38.925 153.342 38.2289 154.094 37.3921 154.664C25.9335 162.497 16.5615 173.01 10.0906 185.29C3.61976 197.569 0.245819 211.243 0.262082 225.124C0.262082 226.054 0.262082 226.984 0.312082 227.904C0.312082 228.214 0.312082 228.514 0.312082 228.824C0.312082 229.434 0.362082 230.054 0.402082 230.664C0.402082 231.024 0.452082 231.384 0.482082 231.744C0.482082 232.304 0.572082 232.854 0.632082 233.404C0.632082 233.784 0.702082 234.154 0.742082 234.534C0.802082 235.074 0.872082 235.604 0.932082 236.134L1.08208 237.264C1.16208 237.814 1.25208 238.354 1.34208 238.904C1.34208 239.254 1.45208 239.604 1.51208 239.954C1.65208 240.794 1.81208 241.624 1.99208 242.454C2.07208 242.844 2.16208 243.234 2.24208 243.624C2.32208 244.014 2.45208 244.564 2.56208 245.034C2.67208 245.504 2.78208 245.924 2.90208 246.364C3.02208 246.804 3.11208 247.174 3.22208 247.584C3.33208 247.994 3.47208 248.504 3.61208 248.954L3.94208 250.084C4.09208 250.554 4.23208 251.024 4.38208 251.484L4.74208 252.544C4.90208 253.024 5.06208 253.544 5.23208 253.974L5.56208 254.864C5.97208 255.954 6.39208 257.024 6.84208 258.094C6.90208 258.254 6.97208 258.414 7.04208 258.574C7.24208 259.054 7.45208 259.524 7.66208 259.994C7.81208 260.314 7.95208 260.644 8.10208 260.994C8.25208 261.344 8.51208 261.874 8.73208 262.314C8.82208 262.524 8.92208 262.724 9.02208 262.934C23.3421 294.224 68.2621 330.434 122.922 361.964C129.449 365.737 135.985 369.237 142.532 372.464C143.798 373.096 144.83 374.116 145.475 375.375C146.121 376.634 146.348 378.067 146.122 379.464C144.952 386.094 140.752 396.834 137.662 406.074C128.782 432.574 161.062 448.784 183.592 454.894C183.769 454.94 183.942 454.996 184.112 455.064C198.462 460.604 220.902 464.174 246.112 464.174C271.342 464.174 293.782 460.604 308.112 455.064C308.292 454.994 308.462 454.944 308.632 454.894C331.162 448.784 363.442 432.574 354.572 406.074C351.472 396.834 347.272 386.074 346.112 379.464C345.884 378.068 346.108 376.635 346.753 375.376C347.397 374.116 348.427 373.096 349.692 372.464C356.219 369.237 362.759 365.737 369.312 361.964C423.962 330.434 468.922 294.224 483.262 262.874L483.552 262.254C483.762 261.814 483.972 261.384 484.182 260.934L484.612 259.934C484.822 259.464 485.042 258.994 485.242 258.514L485.442 258.034C485.882 256.964 486.312 255.894 486.712 254.804C486.822 254.504 486.942 254.214 487.042 253.914C487.222 253.444 487.382 252.964 487.542 252.484C487.702 252.004 487.782 251.784 487.892 251.424C488.002 251.064 488.192 250.494 488.332 250.024C488.472 249.554 488.562 249.274 488.672 248.894L489.062 247.524L489.382 246.304L489.712 244.974C489.822 244.504 489.932 244.034 490.032 243.564C490.132 243.094 490.212 242.784 490.292 242.394C490.462 241.564 490.622 240.734 490.772 239.894C490.832 239.544 490.882 239.194 490.942 238.844C491.032 238.294 491.112 237.754 491.192 237.204L491.262 236.124C491.332 235.594 491.392 235.064 491.452 234.524C491.452 234.144 491.532 233.774 491.572 233.394C491.622 232.844 491.672 232.294 491.712 231.734C491.712 231.374 491.772 231.014 491.792 230.654C491.792 230.044 491.862 229.424 491.892 228.814C491.892 228.504 491.892 228.204 491.892 227.894C491.892 226.974 491.892 226.044 491.892 225.114C491.945 214.484 490.005 203.939 486.172 194.024Z" fill="url(#paint0_linear_940_4874)"/>
<defs>
<linearGradient id="paint0_linear_940_4874" x1="246.132" y1="464.134" x2="246.132" y2="0.87359" gradientUnits="userSpaceOnUse">
<stop stop-color="#726FD6"/>
<stop offset="0.51875" stop-color="#96A2EA"/>
<stop offset="1" stop-color="#A1C0E6"/>
</linearGradient>
</defs>
</svg>
